<svg width="21" height="22" viewBox="0 0 21 22" fill="none" xmlns="http://www.w3.org/2000/svg">
<path d="M11.2512 22C9.89782 22 8.57634 21.5893 7.46151 20.8224C6.34668 20.0554 5.49102 18.9683 5.00769 17.7048L0.261168 5.29522C-0.716332 2.74136 1.1712 2.04611e-09 3.90732 2.04611e-09C4.79547 -2.71997e-05 5.66244 0.271169 6.39211 0.777273C7.12179 1.28338 7.67934 2.00023 7.99011 2.83183L13.5304 17.6599L18.7508 4.16358C18.8319 3.95375 18.8606 3.72735 18.8345 3.50394C18.8084 3.28053 18.7282 3.06683 18.601 2.88131C18.4738 2.69578 18.3033 2.54401 18.1042 2.4391C17.9051 2.33419 17.6835 2.2793 17.4585 2.27917C17.0266 2.27921 16.6057 2.41565 16.256 2.66899C15.9063 2.92233 15.6456 3.27963 15.5112 3.68988L13.012 11.21L11.5858 8.23341L13.4706 2.59223C13.7181 1.83828 14.1975 1.18172 14.8405 0.716223C15.4834 0.250723 16.257 6.1999e-05 17.0509 2.04611e-09C19.8227 2.04611e-09 21.73 2.78139 20.7311 5.36485L15.3949 19.161C15.0714 19.9969 14.5025 20.7154 13.763 21.222C13.0234 21.7287 12.1478 21.9999 11.2512 22ZM11.8661 19.7208L5.7773 3.42945C5.65127 3.09147 5.4249 2.80006 5.12852 2.59428C4.83215 2.38849 4.47992 2.27816 4.11906 2.27807C3.83214 2.27845 3.54962 2.34853 3.29582 2.48227C3.04202 2.61601 2.82455 2.80942 2.66214 3.04582C2.49972 3.28223 2.39724 3.55455 2.36351 3.83933C2.32977 4.12412 2.3658 4.41283 2.4685 4.68061L6.91936 16.3172C7.30233 17.3183 7.98027 18.1796 8.86353 18.7874C9.74679 19.3951 10.7938 19.7206 11.8661 19.7208Z" fill="#8364F6"/>
</svg>
